<svg xmlns="http://www.w3.org/2000/svg">
    <symbol id="ico_deleted" viewBox="0 0 20 20">
      <path fill-rule="evenodd" clip-rule="evenodd" d="M15.5303 5.53033C15.8232 5.23744 15.8232 4.76256 15.5303 4.46967C15.2374 4.17678 14.7626 4.17678 14.4697 4.46967L10 8.93934L5.53033 4.46967C5.23744 4.17678 4.76256 4.17678 4.46967 4.46967C4.17678 4.76256 4.17678 5.23744 4.46967 5.53033L8.93934 10L4.46967 14.4697C4.17678 14.7626 4.17678 15.2374 4.46967 15.5303C4.76256 15.8232 5.23744 15.8232 5.53033 15.5303L10 11.0607L14.4697 15.5303C14.7626 15.8232 15.2374 15.8232 15.5303 15.5303C15.8232 15.2374 15.8232 14.7626 15.5303 14.4697L11.0607 10L15.5303 5.53033Z" fill="currentColor"/>
    </symbol>
    <symbol id="ico_arrow" viewBox="0 0 20 20">
      <path d="M7.08337 3.75L12.9167 9.58333L7.08337 15.4167" stroke="currentColor" stroke-width="1.5" stroke-linecap="round" stroke-linejoin="round"/>
    </symbol>
    <symbol id="ico_align" viewBox="0 0 20 20">
      <path fill="currentColor" fill-rule="evenodd" d="M5.083 15.167V5.31L3.03 7.364a.75.75 0 1 1-1.06-1.061l3.33-3.33a.75.75 0 0 1 1.064-.003l3.333 3.333a.75.75 0 0 1-1.06 1.06L6.582 5.312v9.856a.75.75 0 0 1-1.5 0Zm8.805 2.03a.747.747 0 0 0 .812-.17l3.33-3.33a.75.75 0 0 0-1.06-1.06l-2.053 2.052V4.833a.75.75 0 0 0-1.5 0v9.856l-2.053-2.053a.75.75 0 0 0-1.061 1.061l3.333 3.333c.075.075.16.13.252.166Z" clip-rule="evenodd"/>
    </symbol>
    <symbol id="ico_calendar" viewBox="0 0 20 20">
      <path fill="currentColor" fill-rule="evenodd" d="M6.667 1.75a.75.75 0 0 1 .75.75v.917h5.166V2.5a.75.75 0 0 1 1.5 0v.917H15.5a2.75 2.75 0 0 1 2.75 2.75V15.5a2.75 2.75 0 0 1-2.75 2.75h-11a2.75 2.75 0 0 1-2.75-2.75V6.167a2.75 2.75 0 0 1 2.75-2.75h1.417V2.5a.75.75 0 0 1 .75-.75ZM15.5 4.917c.69 0 1.25.56 1.25 1.25v.583H3.25v-.583c0-.69.56-1.25 1.25-1.25h11ZM3.25 8.25v7.25c0 .69.56 1.25 1.25 1.25h11c.69 0 1.25-.56 1.25-1.25V8.25H3.25Zm4.25 2.583a.833.833 0 1 1-1.667 0 .833.833 0 0 1 1.667 0Zm2.5.834A.833.833 0 1 0 10 10a.833.833 0 0 0 0 1.667Zm4.167-.834a.833.833 0 1 1-1.667 0 .833.833 0 0 1 1.667 0ZM6.667 15a.833.833 0 1 0 0-1.667.833.833 0 0 0 0 1.667Zm4.166-.833a.833.833 0 1 1-1.666 0 .833.833 0 0 1 1.666 0Zm2.5.833a.833.833 0 1 0 0-1.667.833.833 0 0 0 0 1.667Z" clip-rule="evenodd"/>
    </symbol>
    <symbol id="ico_cancel" viewBox="0 0 20 20">
      <path fill="currentColor" fill-rule="evenodd" d="M5.787 4.726a6.75 6.75 0 0 1 9.487 9.487L5.787 4.726Zm-1.06 1.06a6.75 6.75 0 0 0 9.487 9.487L4.725 5.788ZM10 1.75a8.25 8.25 0 1 0 0 16.5 8.25 8.25 0 0 0 0-16.5Z" clip-rule="evenodd"/>
    </symbol>
    <symbol id="ico_class" viewBox="0 0 20 20">
      <path fill="currentColor" fill-rule="evenodd" d="M9.083 3.5a1.75 1.75 0 0 0-1.75-1.75H3.5A1.75 1.75 0 0 0 1.75 3.5v3.833c0 .967.784 1.75 1.75 1.75h3.833a1.75 1.75 0 0 0 1.75-1.75V3.5Zm-1.75-.25a.25.25 0 0 1 .25.25v3.833a.25.25 0 0 1-.25.25H3.5a.25.25 0 0 1-.25-.25V3.5a.25.25 0 0 1 .25-.25h3.833Zm1.75 9.417a1.75 1.75 0 0 0-1.75-1.75H3.5a1.75 1.75 0 0 0-1.75 1.75V16.5c0 .967.784 1.75 1.75 1.75h3.833a1.75 1.75 0 0 0 1.75-1.75v-3.833Zm-1.75-.25a.25.25 0 0 1 .25.25V16.5a.25.25 0 0 1-.25.25H3.5a.25.25 0 0 1-.25-.25v-3.833a.25.25 0 0 1 .25-.25h3.833ZM16.5 1.75c.966 0 1.75.784 1.75 1.75v3.833a1.75 1.75 0 0 1-1.75 1.75h-3.833a1.75 1.75 0 0 1-1.75-1.75V3.5c0-.966.783-1.75 1.75-1.75H16.5Zm.25 1.75a.25.25 0 0 0-.25-.25h-3.833a.25.25 0 0 0-.25.25v3.833c0 .138.112.25.25.25H16.5a.25.25 0 0 0 .25-.25V3.5Zm1.5 9.167a1.75 1.75 0 0 0-1.75-1.75h-3.833a1.75 1.75 0 0 0-1.75 1.75V16.5c0 .967.783 1.75 1.75 1.75H16.5a1.75 1.75 0 0 0 1.75-1.75v-3.833Zm-1.75-.25a.25.25 0 0 1 .25.25V16.5a.25.25 0 0 1-.25.25h-3.833a.25.25 0 0 1-.25-.25v-3.833a.25.25 0 0 1 .25-.25H16.5Z" clip-rule="evenodd"/>
    </symbol>
    <symbol id="ico_clip" viewBox="0 0 20 20">
      <path stroke="currentColor" stroke-linecap="round" stroke-width="1.5" d="M15 5v7.5a5 5 0 0 1-10 0V5a3.333 3.333 0 1 1 6.667 0v7.5a1.667 1.667 0 0 1-3.334 0V5"/>
    </symbol>
    <symbol id="ico_del" viewBox="0 0 20 20">
      <path fill="currentColor" fill-rule="evenodd" d="M5.546 6.12H4.268v11.213c0 .139.112.25.25.25h10.963a.25.25 0 0 0 .25-.25V6.12H5.546Zm8.908-1.5h2.953a.75.75 0 0 1 0 1.5h-.175v11.213a1.75 1.75 0 0 1-1.75 1.75H4.518a1.75 1.75 0 0 1-1.75-1.75V6.12h-.175a.75.75 0 1 1 0-1.5h2.953V2.667c0-.967.784-1.75 1.75-1.75h5.408c.966 0 1.75.783 1.75 1.75V4.62Zm-1.5 0V2.667a.25.25 0 0 0-.25-.25H7.296a.25.25 0 0 0-.25.25V4.62h5.908ZM8.148 9.25a.75.75 0 0 1 .75.75v3.704a.75.75 0 0 1-1.5 0V10a.75.75 0 0 1 .75-.75Zm4.454.75a.75.75 0 0 0-1.5 0v3.704a.75.75 0 0 0 1.5 0V10Z" clip-rule="evenodd"/>
    </symbol>
    <symbol id="ico_close" viewBox="0 0 20 20">
      <path fill="currentColor" fill-rule="evenodd" d="M15.53 5.53a.75.75 0 0 0-1.06-1.06L10 8.94 5.53 4.47a.75.75 0 0 0-1.06 1.06L8.94 10l-4.47 4.47a.75.75 0 1 0 1.06 1.06L10 11.06l4.47 4.47a.75.75 0 1 0 1.06-1.06L11.06 10l4.47-4.47Z" clip-rule="evenodd"/>
    </symbol>
    <symbol id="ico_double-arr_left" viewBox="0 0 20 20">
      <path fill="currentColor" fill-rule="evenodd" d="M4.47 9.47a.75.75 0 0 0 0 1.06l6 6a.75.75 0 1 0 1.06-1.06L6.06 10l5.47-5.47a.75.75 0 0 0-1.06-1.06l-6 6Zm11-6-6 6a.75.75 0 0 0 0 1.06l6 6a.75.75 0 1 0 1.06-1.06L11.06 10l5.47-5.47a.75.75 0 0 0-1.06-1.06Z" clip-rule="evenodd"/>
    </symbol>
    <symbol id="ico_double-arr_right" viewBox="0 0 20 20">
      <path fill="currentColor" fill-rule="evenodd" d="M15.53 10.53a.75.75 0 0 0 0-1.06l-6-6a.75.75 0 1 0-1.06 1.06L13.94 10l-5.47 5.47a.75.75 0 1 0 1.06 1.06l6-6Zm-11 6 6-6a.75.75 0 0 0 0-1.06l-6-6a.75.75 0 1 0-1.06 1.06L8.94 10l-5.47 5.47a.75.75 0 1 0 1.06 1.06Z" clip-rule="evenodd"/>
    </symbol>
    <symbol id="ico_edit" viewBox="0 0 20 20">
      <path fill="currentColor" fill-rule="evenodd" d="M17.5 1.625a2.75 2.75 0 0 0-3.889 0l-1.361 1.36-.003.003-.002.003-9.89 9.89a1.75 1.75 0 0 0-.512 1.237v2.29c0 .966.783 1.75 1.75 1.75h2.29c.463 0 .908-.185 1.237-.513l9.892-9.892 1.363-1.364a2.75 2.75 0 0 0 0-3.89l-.875-.874Zm-1.018 4.537.833-.834a1.25 1.25 0 0 0 0-1.768l-.876-.875a1.25 1.25 0 0 0-1.767 0l-.834.833 2.644 2.644Zm-3.704-1.583 2.643 2.643-9.362 9.362a.25.25 0 0 1-.177.073h-2.29a.25.25 0 0 1-.25-.25v-2.29a.25.25 0 0 1 .074-.176l9.362-9.362Z" clip-rule="evenodd"/>
    </symbol>
    <symbol id="ico_filter" viewBox="0 0 20 20">
      <path fill="currentColor" fill-rule="evenodd" d="M6.583 5a.917.917 0 1 1 1.834 0 .917.917 0 0 1-1.834 0Zm-1.381.75H3.333a.75.75 0 0 1 0-1.5h1.869a2.418 2.418 0 0 1 4.596 0h6.869a.75.75 0 0 1 0 1.5H9.798a2.418 2.418 0 0 1-4.596 0ZM12.5 7.583c-1.073 0-1.982.7-2.298 1.667H3.333a.75.75 0 0 0 0 1.5h6.869a2.418 2.418 0 0 0 4.596 0h1.869a.75.75 0 0 0 0-1.5h-1.869A2.418 2.418 0 0 0 12.5 7.583ZM9.798 15.75a2.418 2.418 0 0 1-4.596 0H3.333a.75.75 0 0 1 0-1.5h1.869a2.418 2.418 0 0 1 4.596 0h6.869a.75.75 0 0 1 0 1.5H9.798Zm2.702-4.833a.917.917 0 1 0 0-1.834.917.917 0 0 0 0 1.834ZM6.583 15a.917.917 0 1 1 1.834 0 .917.917 0 0 1-1.834 0Z" clip-rule="evenodd"/>
    </symbol>
    <symbol id="ico_history" viewBox="0 0 20 20">
      <path fill="currentColor" fill-rule="evenodd" d="M5.833 3.25a.917.917 0 1 0 0 1.833.917.917 0 0 0 0-1.833Zm-2.416.917a2.417 2.417 0 1 1 3.166 2.298V9.25h6.834V6.465a2.418 2.418 0 1 1 1.5 0V9.25H17.5a.75.75 0 0 1 0 1.5h-6.75v2.785a2.418 2.418 0 1 1-1.5 0V10.75H2.5a.75.75 0 0 1 0-1.5h2.583V6.465a2.418 2.418 0 0 1-1.666-2.298Zm10.75-.917a.917.917 0 1 0 0 1.833.917.917 0 0 0 0-1.833ZM10 16.75a.917.917 0 1 0 0-1.833.917.917 0 0 0 0 1.833Z" clip-rule="evenodd"/>
    </symbol>
    <symbol id="ico_info" viewBox="0 0 20 20">
      <path fill="currentColor" fill-rule="evenodd" d="M10 3.25a6.75 6.75 0 1 0 0 13.5 6.75 6.75 0 0 0 0-13.5ZM1.75 10a8.25 8.25 0 1 1 16.5 0 8.25 8.25 0 0 1-16.5 0ZM10 14.25a.75.75 0 0 1-.75-.75v-4a.75.75 0 0 1 1.5 0v4a.75.75 0 0 1-.75.75Zm.833-7.583a.833.833 0 1 1-1.666 0 .833.833 0 0 1 1.666 0Z" clip-rule="evenodd"/>
    </symbol>
    <symbol id="ico_list" viewBox="0 0 20 20">
      <path fill="currentColor" fill-rule="evenodd" d="M18.25 15.5a2.75 2.75 0 0 1-2.75 2.75h-11a2.75 2.75 0 0 1-2.75-2.75v-11A2.75 2.75 0 0 1 4.5 1.75h11a2.75 2.75 0 0 1 2.75 2.75v11Zm-2.75 1.25c.69 0 1.25-.56 1.25-1.25v-11c0-.69-.56-1.25-1.25-1.25h-11c-.69 0-1.25.56-1.25 1.25v11c0 .69.56 1.25 1.25 1.25h11ZM7.5 10a.833.833 0 1 1-1.667 0A.833.833 0 0 1 7.5 10Zm-.833-2.5a.833.833 0 1 0 0-1.667.833.833 0 0 0 0 1.667Zm.833 5.833a.833.833 0 1 1-1.667 0 .833.833 0 0 1 1.667 0ZM10 9.25a.75.75 0 0 0 0 1.5h3.333a.75.75 0 0 0 0-1.5H10Zm-.75-2.583a.75.75 0 0 1 .75-.75h3.333a.75.75 0 0 1 0 1.5H10a.75.75 0 0 1-.75-.75Zm.75 5.916a.75.75 0 1 0 0 1.5h3.333a.75.75 0 0 0 0-1.5H10Z" clip-rule="evenodd"/>
    </symbol>
    <symbol id="ico_list1" viewBox="0 0 20 20">
      <path fill="currentColor" fill-rule="evenodd" d="M3.25 10a6.75 6.75 0 1 1 13.5 0 6.75 6.75 0 0 1-13.5 0ZM10 1.75a8.25 8.25 0 1 0 0 16.5 8.25 8.25 0 0 0 0-16.5ZM5.917 8.333a.75.75 0 0 1 .75-.75h6.666a.75.75 0 0 1 0 1.5H6.667a.75.75 0 0 1-.75-.75Zm0 3.334a.75.75 0 0 1 .75-.75h6.666a.75.75 0 0 1 0 1.5H6.667a.75.75 0 0 1-.75-.75Z" clip-rule="evenodd"/>
    </symbol>
    <symbol id="ico_list2" viewBox="0 0 20 20">
      <path fill="currentColor" fill-rule="evenodd" d="M16.583 15.5a2.75 2.75 0 0 1-2.75 2.75H6.167a2.75 2.75 0 0 1-2.75-2.75v-11a2.75 2.75 0 0 1 2.75-2.75h7.666a2.75 2.75 0 0 1 2.75 2.75v11Zm-2.75 1.25c.69 0 1.25-.56 1.25-1.25v-11c0-.69-.56-1.25-1.25-1.25H6.167c-.69 0-1.25.56-1.25 1.25v11c0 .69.56 1.25 1.25 1.25h7.666ZM8.333 10a.833.833 0 1 1-1.666 0 .833.833 0 0 1 1.666 0ZM7.5 7.5a.833.833 0 1 0 0-1.667.833.833 0 0 0 0 1.667Zm.833 5.833a.833.833 0 1 1-1.666 0 .833.833 0 0 1 1.666 0ZM10 9.25a.75.75 0 0 0 0 1.5h2.5a.75.75 0 1 0 0-1.5H10Zm-.75-2.583a.75.75 0 0 1 .75-.75h2.5a.75.75 0 1 1 0 1.5H10a.75.75 0 0 1-.75-.75Zm.75 5.916a.75.75 0 1 0 0 1.5h2.5a.75.75 0 1 0 0-1.5H10Z" clip-rule="evenodd"/>
    </symbol>
    <symbol id="ico_list3" viewBox="0 0 20 20">
      <path fill="currentColor" fill-rule="evenodd" d="M4.733 2.972c-.286 0-.65.285-.65.806v12.444c0 .521.364.806.65.806h10.534c.286 0 .65-.285.65-.806v-8.95a.25.25 0 0 0-.065-.167l-3.645-4.05a.25.25 0 0 0-.186-.083H4.733Zm-2.15.806c0-1.197.89-2.306 2.15-2.306h7.288c.496 0 .97.21 1.301.58l3.646 4.05c.289.321.449.738.449 1.17v8.95c0 1.197-.89 2.306-2.15 2.306H4.733c-1.26 0-2.15-1.109-2.15-2.306V3.778ZM6.75 9.722a.75.75 0 0 1 .75-.75h5a.75.75 0 0 1 0 1.5h-5a.75.75 0 0 1-.75-.75Zm.75 2.584a.75.75 0 0 0 0 1.5h5a.75.75 0 0 0 0-1.5h-5Z" clip-rule="evenodd"/>
    </symbol>
    <symbol id="ico_logout" viewBox="0 0 20 20">
      <path fill="currentColor" fill-rule="evenodd" d="M16.75 15.5v-11c0-.692-.558-1.25-1.247-1.25H4.5c-.69 0-1.249.559-1.249 1.25v1.796a.75.75 0 0 1-1.5 0V4.5A2.75 2.75 0 0 1 4.5 1.75h11.003A2.747 2.747 0 0 1 18.25 4.5v11a2.75 2.75 0 0 1-2.75 2.75h-11a2.75 2.75 0 0 1-2.75-2.75v-1.796a.75.75 0 0 1 1.5 0V15.5c0 .69.56 1.25 1.25 1.25h11c.69 0 1.25-.56 1.25-1.25Zm-8.114-2.47a.75.75 0 0 1 0-1.06l1.22-1.22H2.5a.75.75 0 0 1 0-1.5h7.356l-1.22-1.22a.75.75 0 0 1 1.061-1.06l1.793 1.793a1.75 1.75 0 0 1 0 2.474L9.697 13.03a.75.75 0 0 1-1.06 0Z" clip-rule="evenodd"/>
    </symbol>
    <symbol id="ico_menu" viewBox="0 0 20 20">
      <path fill="currentColor" fill-rule="evenodd" d="M3.333 4.25a.75.75 0 1 0 0 1.5h13.334a.75.75 0 0 0 0-1.5H3.333ZM2.583 10a.75.75 0 0 1 .75-.75h13.334a.75.75 0 0 1 0 1.5H3.333a.75.75 0 0 1-.75-.75Zm0 5a.75.75 0 0 1 .75-.75h13.334a.75.75 0 0 1 0 1.5H3.333a.75.75 0 0 1-.75-.75Z" clip-rule="evenodd"/>
    </symbol>
    <symbol id="ico_menu-close" viewBox="0 0 20 20">
      <path fill="currentColor" fill-rule="evenodd" d="M3.333 3.417a.75.75 0 1 0 0 1.5h13.334a.75.75 0 0 0 0-1.5H3.333ZM2.583 10a.75.75 0 0 1 .75-.75H10a.75.75 0 0 1 0 1.5H3.333a.75.75 0 0 1-.75-.75Zm0 5.833a.75.75 0 0 1 .75-.75h13.334a.75.75 0 1 1 0 1.5H3.333a.75.75 0 0 1-.75-.75Z" clip-rule="evenodd"/><path fill="currentColor" stroke="currentColor" stroke-linejoin="round" d="M16.667 12.5 13.333 10l3.334-2.5v5Z"/>
    </symbol>
    <symbol id="ico_menu-open" viewBox="0 0 20 20">
      <path fill="currentColor" fill-rule="evenodd" d="M3.333 3.417a.75.75 0 1 0 0 1.5h13.334a.75.75 0 0 0 0-1.5H3.333ZM9.25 10a.75.75 0 0 1 .75-.75h6.667a.75.75 0 0 1 0 1.5H10a.75.75 0 0 1-.75-.75Zm-6.667 5.833a.75.75 0 0 1 .75-.75h13.334a.75.75 0 1 1 0 1.5H3.333a.75.75 0 0 1-.75-.75Z" clip-rule="evenodd"/><path fill="currentColor" stroke="currentColor" stroke-linejoin="round" d="M3.333 7.5 6.667 10l-3.334 2.5v-5Z"/>
    </symbol>
    <symbol id="ico_minus" viewBox="0 0 20 20">
      <path stroke="currentColor" stroke-linecap="round" stroke-width="1.5" d="M4.75 10h10.5"/>
    </symbol>
    <symbol id="ico_more" viewBox="0 0 20 20">
      <path fill="currentColor" fill-rule="evenodd" d="M11.667 4.167a1.667 1.667 0 1 1-3.334 0 1.667 1.667 0 0 1 3.334 0Zm0 5.833a1.667 1.667 0 1 1-3.334 0 1.667 1.667 0 0 1 3.334 0ZM10 17.5a1.667 1.667 0 1 0 0-3.333 1.667 1.667 0 0 0 0 3.333Z" clip-rule="evenodd"/>
    </symbol>
    <symbol id="ico_more2" viewBox="0 0 20 20">
      <path fill="currentColor" fill-rule="evenodd" d="M10.112 3.394a.25.25 0 0 0-.224 0L3.791 6.443a.25.25 0 0 0 0 .447l6.097 3.05a.25.25 0 0 0 .224 0l6.097-3.049a.25.25 0 0 0 0-.447l-6.097-3.049Zm-.895-1.341a1.75 1.75 0 0 1 1.566 0L16.88 5.1c1.29.645 1.29 2.486 0 3.13l-.11.056.153.078c1.275.648 1.275 2.47 0 3.119l-.21.107.21.107c1.275.649 1.275 2.47 0 3.12l-6.13 3.12a1.75 1.75 0 0 1-1.587 0l-6.13-3.12c-1.274-.65-1.274-2.471 0-3.12l.212-.107-.211-.107c-1.275-.65-1.275-2.47 0-3.12l.153-.077-.11-.055c-1.29-.645-1.29-2.486 0-3.13l6.097-3.05Zm-4.276 10.38-1.184.602a.25.25 0 0 0 0 .445l6.13 3.12a.25.25 0 0 0 .226 0l6.13-3.12a.25.25 0 0 0 0-.445l-1.184-.603-4.265 2.172a1.75 1.75 0 0 1-1.588 0l-4.265-2.172Zm5.842-1.153 4.32-2.16 1.14.581a.25.25 0 0 1 0 .446l-6.13 3.12a.25.25 0 0 1-.226 0l-6.13-3.12a.25.25 0 0 1 0-.446l1.14-.58 4.32 2.16a1.75 1.75 0 0 0 1.566 0Z" clip-rule="evenodd"/>
    </symbol>
    <symbol id="ico_my" viewBox="0 0 20 20">
      <path fill="currentColor" fill-rule="evenodd" d="M6.583 6.667a3.417 3.417 0 1 1 6.834 0 3.417 3.417 0 0 1-6.834 0Zm6.565 3.777a4.917 4.917 0 1 0-6.295 0 6.394 6.394 0 0 0-4.27 6.03c0 .981.795 1.776 1.776 1.776H15.64c.98 0 1.776-.795 1.776-1.776a6.394 6.394 0 0 0-4.27-6.03ZM10 11.584H8.974a4.891 4.891 0 0 0-4.89 4.89c0 .153.123.276.275.276H15.64a.276.276 0 0 0 .276-.276 4.891 4.891 0 0 0-4.891-4.89H10Z" clip-rule="evenodd"/>
    </symbol>
    <symbol id="ico_mylist" viewBox="0 0 20 20">
      <path fill="currentColor" fill-rule="evenodd" d="M4.917 6.667a2.583 2.583 0 1 1 5.166 0 2.583 2.583 0 0 1-5.166 0ZM7.5 2.583A4.083 4.083 0 0 0 4.942 9.85 5.75 5.75 0 0 0 1.75 15v.556a1.86 1.86 0 0 0 1.861 1.86h7.778a1.861 1.861 0 0 0 1.861-1.86V15a5.75 5.75 0 0 0-3.192-5.15A4.083 4.083 0 0 0 7.5 2.583Zm4.25 12.973c0 .2-.162.36-.361.36H3.61a.361.361 0 0 1-.361-.36V15a4.25 4.25 0 0 1 8.5 0v.556Zm5.25-3.89a.75.75 0 0 1-.75.75h-2.083a.75.75 0 1 1 0-1.5h2.083a.75.75 0 0 1 .75.75Zm.5-2.583a.75.75 0 0 0 0-1.5h-3.333a.75.75 0 0 0 0 1.5H17.5Z" clip-rule="evenodd"/>
    </symbol>
    <symbol id="ico_plus" viewBox="0 0 20 20">
      <path fill="currentColor" fill-rule="evenodd" d="M9.25 15.25a.75.75 0 0 0 1.5 0v-4.5h4.5a.75.75 0 0 0 0-1.5h-4.5v-4.5a.75.75 0 0 0-1.5 0v4.5h-4.5a.75.75 0 0 0 0 1.5h4.5v4.5Z" clip-rule="evenodd"/>
    </symbol>
    <symbol id="ico_print" viewBox="0 0 20 20">
      <path fill="currentColor" fill-rule="evenodd" d="M5.083 4.5a2.75 2.75 0 0 1 2.75-2.75h4.334a2.75 2.75 0 0 1 2.75 2.75v1.417h.583a2.75 2.75 0 0 1 2.75 2.75v2.666a2.75 2.75 0 0 1-2.75 2.75h-.583V15.5a2.75 2.75 0 0 1-2.75 2.75H7.833a2.75 2.75 0 0 1-2.75-2.75v-1.417H4.5a2.75 2.75 0 0 1-2.75-2.75V8.667a2.75 2.75 0 0 1 2.75-2.75h.583V4.5Zm0 2.917H4.5c-.69 0-1.25.56-1.25 1.25v2.666c0 .69.56 1.25 1.25 1.25h.805a2.75 2.75 0 0 1 2.528-1.666h4.334a2.75 2.75 0 0 1 2.528 1.666h.805c.69 0 1.25-.56 1.25-1.25V8.667c0-.69-.56-1.25-1.25-1.25H5.083ZM13.417 4.5v1.417H6.583V4.5c0-.69.56-1.25 1.25-1.25h4.334c.69 0 1.25.56 1.25 1.25Zm0 11c0 .69-.56 1.25-1.25 1.25H7.833c-.69 0-1.25-.56-1.25-1.25v-1.833c0-.69.56-1.25 1.25-1.25h4.334c.69 0 1.25.56 1.25 1.25V15.5ZM15 10.833a.833.833 0 1 0 0-1.666.833.833 0 0 0 0 1.666Z" clip-rule="evenodd"/>
    </symbol>
    <symbol id="ico_refresh" viewBox="0 0 20 20">
      <path fill="currentColor" fill-rule="evenodd" d="M15 6.583a.75.75 0 0 0 .75-.75V2.5a.75.75 0 0 0-1.5 0v1.421A7.417 7.417 0 1 0 17.417 10a.75.75 0 1 0-1.5 0 5.917 5.917 0 1 1-2.624-4.917h-1.626a.75.75 0 0 0 0 1.5H15Z" clip-rule="evenodd"/>
    </symbol>
    <symbol id="ico_save" viewBox="0 0 20 20">
      <path fill="currentColor" fill-rule="evenodd" d="M13.25 5.833a.75.75 0 0 1-.75.75h-5a.75.75 0 0 1-.75-.75V3.25H4.5c-.69 0-1.25.56-1.25 1.25v11c0 .69.56 1.25 1.25 1.25h11c.69 0 1.25-.56 1.25-1.25V6.662c0-.332-.132-.65-.366-.884l-2.162-2.162a1.25 1.25 0 0 0-.884-.366h-.088v2.583Zm0-4.083h.088c.73 0 1.43.29 1.945.806l2.162 2.161a2.75 2.75 0 0 1 .805 1.945V15.5a2.75 2.75 0 0 1-2.75 2.75h-11a2.75 2.75 0 0 1-2.75-2.75v-11A2.75 2.75 0 0 1 4.5 1.75h8.75Zm-5 3.333V3.25h3.5v1.833h-3.5Zm0 6.584a1.75 1.75 0 1 0 3.5 0 1.75 1.75 0 0 0-3.5 0Zm1.75 3.25a3.25 3.25 0 1 1 0-6.5 3.25 3.25 0 0 1 0 6.5Z" clip-rule="evenodd"/>
    </symbol>
    <symbol id="ico_search" viewBox="0 0 20 20">
      <path fill="currentColor" fill-rule="evenodd" d="M3.25 8.333a5.083 5.083 0 1 1 10.167 0 5.083 5.083 0 0 1-10.167 0ZM8.333 1.75a6.583 6.583 0 1 0 4.095 11.739l3.708 3.708a.75.75 0 0 0 1.061-1.06l-3.708-3.709A6.583 6.583 0 0 0 8.334 1.75Z" clip-rule="evenodd"/>
    </symbol>
    <symbol id="ico_sequence-down" viewBox="0 0 20 20">
      <path fill="currentColor" fill-rule="evenodd" d="m10.75 13.19 2.72-2.72a.75.75 0 1 1 1.06 1.06l-4 4a.75.75 0 0 1-1.06 0l-4-4a.75.75 0 1 1 1.06-1.06l2.72 2.72V4.75a.75.75 0 0 1 1.5 0v8.44Z" clip-rule="evenodd"/>
    </symbol>
    <symbol id="ico_sequence-up" viewBox="0 0 20 20">
      <path fill="currentColor" fill-rule="evenodd" d="M10.53 4.47a.75.75 0 0 0-1.06 0l-4 4a.75.75 0 0 0 1.06 1.06l2.72-2.72v8.44a.75.75 0 0 0 1.5 0V6.81l2.72 2.72a.75.75 0 1 0 1.06-1.06l-4-4Z" clip-rule="evenodd"/>
    </symbol>
    <symbol id="ico_setting" viewBox="0 0 20 20">
      <path fill="currentColor" fill-rule="evenodd" d="M12.252 2.839c-.754-2.119-3.75-2.119-4.503 0a.89.89 0 0 1-1.22.505c-2.031-.965-4.15 1.154-3.185 3.184a.89.89 0 0 1-.505 1.22c-2.119.754-2.119 3.75 0 4.503a.89.89 0 0 1 .505 1.22c-.965 2.031 1.154 4.15 3.184 3.185a.89.89 0 0 1 1.22.505c.754 2.119 3.75 2.119 4.503 0a.89.89 0 0 1 1.22-.505c2.031.965 4.15-1.154 3.185-3.184a.89.89 0 0 1 .505-1.22c2.119-.754 2.119-3.75 0-4.503a.89.89 0 0 1-.505-1.22c.965-2.031-1.154-4.15-3.184-3.185a.89.89 0 0 1-1.22-.505Zm-3.09.503c.28-.79 1.396-.79 1.676 0a2.39 2.39 0 0 0 3.278 1.357c.756-.36 1.544.43 1.185 1.185a2.39 2.39 0 0 0 1.357 3.278c.79.28.79 1.396 0 1.676a2.39 2.39 0 0 0-1.357 3.278c.36.756-.43 1.544-1.185 1.185a2.39 2.39 0 0 0-3.278 1.357c-.28.79-1.396.79-1.676 0a2.39 2.39 0 0 0-3.278-1.357c-.756.36-1.544-.43-1.185-1.185a2.39 2.39 0 0 0-1.357-3.278c-.79-.28-.79-1.396 0-1.676a2.39 2.39 0 0 0 1.357-3.278c-.36-.756.43-1.544 1.185-1.185a2.39 2.39 0 0 0 3.278-1.357ZM8.25 10a1.75 1.75 0 1 1 3.5 0 1.75 1.75 0 0 1-3.5 0ZM10 6.75a3.25 3.25 0 1 0 0 6.5 3.25 3.25 0 0 0 0-6.5Z" clip-rule="evenodd"/>
    </symbol>
    <symbol id="ico_share" viewBox="0 0 20 20">
      <path fill="currentColor" fill-rule="evenodd" d="M15 2.417a1.75 1.75 0 1 0 0 3.5 1.75 1.75 0 0 0 0-3.5Zm-3.25 1.75a3.25 3.25 0 1 1 .773 2.104L8.052 8.88c.128.349.198.726.198 1.12 0 .394-.07.771-.198 1.12l4.471 2.609a3.25 3.25 0 1 1-.683 1.338l-4.619-2.695a3.25 3.25 0 1 1 0-4.745l4.62-2.694a3.263 3.263 0 0 1-.091-.766ZM15 14.083a1.75 1.75 0 1 0 0 3.5 1.75 1.75 0 0 0 0-3.5ZM3.25 10a1.75 1.75 0 1 1 3.5 0 1.75 1.75 0 0 1-3.5 0Z" clip-rule="evenodd"/>
    </symbol>
    <symbol id="ico_talk" viewBox="0 0 20 20">
      <path fill="currentColor" fill-rule="evenodd" d="M4.5 4.25c-.69 0-1.25.56-1.25 1.25v7.667c0 .69.56 1.25 1.25 1.25h2.917v2.502a.25.25 0 0 0 .426.177l2.46-2.46.22-.22H15.5c.69 0 1.25-.559 1.25-1.25V5.5c0-.69-.56-1.25-1.25-1.25h-11ZM1.75 5.5A2.75 2.75 0 0 1 4.5 2.75h11a2.75 2.75 0 0 1 2.75 2.75v7.667a2.75 2.75 0 0 1-2.75 2.75h-4.356l-2.24 2.24c-1.102 1.102-2.987.321-2.987-1.238v-1.002H4.5a2.75 2.75 0 0 1-2.75-2.75V5.5Zm4.167 2.167a.75.75 0 0 1 .75-.75h6.666a.75.75 0 0 1 0 1.5H6.667a.75.75 0 0 1-.75-.75Zm.75 2.583a.75.75 0 0 0 0 1.5h6.666a.75.75 0 0 0 0-1.5H6.667Z" clip-rule="evenodd"/>
    </symbol>
    <symbol id="ico_up" viewBox="0 0 20 20">
      <path fill="currentColor" fill-rule="evenodd" d="M10.286 1.806a.748.748 0 0 0-.817.165L5.303 6.136a.75.75 0 0 0 1.06 1.061L9.25 4.311V17.5a.75.75 0 0 0 1.5 0V4.31l2.886 2.887a.75.75 0 0 0 1.061-1.06L10.53 1.97a.747.747 0 0 0-.244-.164Z" clip-rule="evenodd"/>
    </symbol>
    <symbol id="ico_url" viewBox="0 0 20 20">
      <path fill="currentColor" fill-rule="evenodd" d="M4.222 18.528a2.75 2.75 0 0 1-2.75-2.75V4.222a2.75 2.75 0 0 1 2.75-2.75h3.556a.75.75 0 0 1 0 1.5H4.222c-.69 0-1.25.56-1.25 1.25v11.556c0 .69.56 1.25 1.25 1.25h11.556c.69 0 1.25-.56 1.25-1.25v-3.556a.75.75 0 0 1 1.5 0v3.556a2.75 2.75 0 0 1-2.75 2.75H4.222Zm7.914-9.604a4.083 4.083 0 1 0-1.06-1.06l-3.273 3.272a.75.75 0 0 0 1.06 1.06l3.273-3.272Zm-.275-3.368a2.583 2.583 0 1 1 5.167 0 2.583 2.583 0 0 1-5.167 0Z" clip-rule="evenodd"/>
    </symbol>
    <symbol id="ico_warning" viewBox="0 0 20 20">
      <path fill="currentColor" fill-rule="evenodd" d="M10 3.25a6.75 6.75 0 1 0 0 13.5 6.75 6.75 0 0 0 0-13.5ZM1.75 10a8.25 8.25 0 1 1 16.5 0 8.25 8.25 0 0 1-16.5 0ZM10 5.75a.75.75 0 0 1 .75.75v4a.75.75 0 0 1-1.5 0v-4a.75.75 0 0 1 .75-.75Zm-.833 7.583a.833.833 0 1 1 1.666 0 .833.833 0 0 1-1.666 0Z" clip-rule="evenodd"/>
    </symbol>
    <symbol id="ico_home" viewBox="0 0 20 20">
      <path xmlns="http://www.w3.org/2000/svg" fill="currentColor" fill-rule="evenodd" d="M15.625 18.344a2.719 2.719 0 0 0 2.719-2.719V8.979c0-.76-.318-1.486-.877-2l-5.625-5.18a2.719 2.719 0 0 0-3.684 0l-5.625 5.18a2.719 2.719 0 0 0-.877 2v6.646a2.719 2.719 0 0 0 2.719 2.719h11.25Zm1.031-2.719c0 .57-.461 1.031-1.031 1.031h-2.281v-3.531a2.719 2.719 0 0 0-2.719-2.719h-1.25a2.719 2.719 0 0 0-2.719 2.719v3.531H4.375c-.57 0-1.031-.461-1.031-1.031V8.979c0-.289.12-.564.332-.76L9.301 3.04a1.031 1.031 0 0 1 1.398 0l5.625 5.18c.212.195.332.47.332.759v6.646Zm-8.312 1.031h3.312v-3.531c0-.57-.462-1.031-1.031-1.031h-1.25c-.57 0-1.031.461-1.031 1.031v3.531Z" clip-rule="evenodd"/>
    </symbol>
    <symbol id="ico_link" viewBox="0 0 20 20">
      <path xmlns="http://www.w3.org/2000/svg" fill="currentColor" fill-rule="evenodd" d="M9.646 3.813a4.625 4.625 0 0 1 6.541 6.54l-1.62 1.62a.5.5 0 1 1-.707-.706l1.62-1.62a3.625 3.625 0 0 0-5.126-5.127l-1.62 1.62a.5.5 0 1 1-.708-.707l1.62-1.62Zm.707 12.374a4.625 4.625 0 1 1-6.54-6.54l1.62-1.621a.5.5 0 1 1 .708.707l-1.62 1.62a3.625 3.625 0 1 0 5.125 5.127l1.62-1.62a.5.5 0 0 1 .708.706l-1.62 1.62Zm1.945-7.778a.5.5 0 1 0-.707-.707l-3.889 3.889a.5.5 0 0 0 .707.707l3.889-3.889Z" clip-rule="evenodd"/>
    </symbol>
    <symbol id="ico_happy" viewBox="0 0 20 20">
      <path xmlns="http://www.w3.org/2000/svg" stroke="currentColor" stroke-linecap="round" stroke-width="1.6" d="M8.4 14.7c.3.6 1.44 1.8 3.6 1.8s3.3-1.2 3.6-1.8M8.681 9.581h.338m-.338.338h.338m5.962-.338h.338m-.338.338h.338M21 12a9 9 0 1 1-18 0 9 9 0 0 1 18 0ZM9.3 9.75a.45.45 0 1 1-.9 0 .45.45 0 0 1 .9 0Zm6.3 0a.45.45 0 1 1-.9 0 .45.45 0 0 1 .9 0Z"/>
    </symbol>
</svg>